<svg viewBox="0 0 512 512" xmlns="http://www.w3.org/2000/svg"><path d="M407.951 343.116a7.2 7.2 0 0 1 .048.733c.121 13.4-15.891 29.5-41.725 41.981C345.344 395.944 309.222 408 256 408s-89.344-12.056-110.274-22.17c-25.834-12.482-41.846-28.584-41.726-41.981a7.2 7.2 0 0 1 .048-.733l11.052-99.492a7 7 0 0 1 9.82-5.615L242.911 290.9a32.043 32.043 0 0 0 26.179 0l117.986-52.89a7 7 0 0 1 9.82 5.615ZM474.988 153.4l-205.9-92.3a32.037 32.037 0 0 0-26.179 0l-205.9 92.3a16 16 0 0 0 0 29.2l205.9 92.3a32.043 32.043 0 0 0 26.179 0L440 198.284v59.874A15.98 15.98 0 0 0 432 272v104h32V272a15.98 15.98 0 0 0-8-13.842v-67.047l18.987-8.511a16 16 0 0 0 0-29.2Z" fill="#ffffff" class="fill-3b3b3b"></path></svg>